<?xml version="1.0" encoding="UTF-8"?>
<svg version="1.1" xmlns="http://www.w3.org/2000/svg" width="474" height="158">
<path d="M0 0 C7.92 0 15.84 0 24 0 C25 1 25 1 25.12304783 2.91904545 C25.12166514 4.18973708 25.12166514 4.18973708 25.12025452 5.48609924 C25.12162918 6.45510162 25.12300385 7.424104 25.12442017 8.42247009 C25.12082489 9.49420975 25.11722961 10.5659494 25.11352539 11.67016602 C25.11367142 12.79197266 25.11381744 13.9137793 25.1139679 15.06958008 C25.1132682 18.79770811 25.10547315 22.52578689 25.09765625 26.25390625 C25.09579227 28.83080518 25.09436827 31.40770447 25.09336853 33.98460388 C25.08993342 40.08675115 25.0820426 46.18887794 25.07201904 52.29101747 C25.06085689 59.2364925 25.0553472 66.18196835 25.05032361 73.12745011 C25.03985996 87.41831124 25.02151489 101.70915134 25 116 C35.56 115.67 46.12 115.34 57 115 C57 94.87 57 74.74 57 54 C56.01 54 55.02 54 54 54 C54 73.14 54 92.28 54 112 C45.75 112 37.5 112 29 112 C29 84.61 29 57.22 29 29 C46.96400126 28.38055168 64.8170237 27.83645973 82.77685547 27.86962891 C86.34737096 27.87515058 89.91776875 27.86955123 93.48828125 27.86328125 C95.76822944 27.86393958 98.04817756 27.86521562 100.328125 27.8671875 C101.39129944 27.86516327 102.45447388 27.86313904 103.54986572 27.86105347 C105.00099762 27.86578171 105.00099762 27.86578171 106.48144531 27.87060547 C107.75921844 27.87179886 107.75921844 27.87179886 109.06280518 27.87301636 C111 28 111 28 112 29 C112.09439407 30.49482968 112.11886479 31.99414069 112.11523438 33.49194336 C112.11463013 34.45886612 112.11402588 35.42578888 112.11340332 36.42201233 C112.10367493 38.02102638 112.10367493 38.02102638 112.09375 39.65234375 C112.09016479 40.76318832 112.08657959 41.8740329 112.08288574 43.01853943 C112.01819001 56.86827901 111.75856659 70.71530463 111.5 84.5625 C111.45136448 87.24283036 111.40340965 89.92317276 111.35546875 92.60351562 C111.23931966 99.06905465 111.12069459 105.53454431 111 112 C107.02084841 112.02886984 103.04172347 112.04675406 99.0625 112.0625 C97.35803711 112.07506836 97.35803711 112.07506836 95.61914062 112.08789062 C94.53955078 112.09111328 93.45996094 112.09433594 92.34765625 112.09765625 C90.84730835 112.10551147 90.84730835 112.10551147 89.31665039 112.11352539 C87 112 87 112 86 111 C85.90629376 109.22008076 85.88255729 107.43643261 85.88647461 105.65405273 C85.88658791 103.94239174 85.88658791 103.94239174 85.88670349 102.19615173 C85.89186478 100.9545076 85.89702606 99.71286346 85.90234375 98.43359375 C85.9037587 97.16983414 85.90517365 95.90607452 85.90663147 94.60401917 C85.91129418 91.23875111 85.9202852 87.8735501 85.93133545 84.50830078 C85.94155154 81.0765033 85.94612951 77.64469891 85.95117188 74.21289062 C85.9622262 67.47524176 85.9789829 60.73762475 86 54 C84.68 54 83.36 54 82 54 C82 74.46 82 94.92 82 116 C93.22 116 104.44 116 116 116 C116 77.72 116 39.44 116 0 C123.59 0 131.18 0 139 0 C140 1 140 1 140.12304783 3.29386234 C140.12212604 4.31797435 140.12120424 5.34208635 140.12025452 6.39723206 C140.12231651 8.15364517 140.12231651 8.15364517 140.12442017 9.94554138 C140.12082489 11.24169876 140.11722961 12.53785614 140.11352539 13.87329102 C140.11324352 15.24287921 140.11340125 16.61246756 140.1139679 17.98205566 C140.11425588 21.71122948 140.10835909 25.44037141 140.10139394 29.16953778 C140.09516047 33.06264413 140.09455661 36.95575113 140.09336853 40.84886169 C140.09025519 48.22598146 140.08204178 55.60308649 140.07201904 62.98019975 C140.06085797 71.37667543 140.05534747 79.77315179 140.05032361 88.16963303 C140.03985916 105.44643056 140.02225968 122.72321372 140 140 C124.78336445 140.73376443 109.60860587 141.15187664 94.375 141.1328125 C92.40413399 141.13349006 90.43326807 141.13446378 88.46240234 141.13571167 C84.37531725 141.13716747 80.28825434 141.13510362 76.20117188 141.13037109 C71.03862745 141.12467517 65.87613506 141.12796573 60.71359253 141.13394356 C56.65681588 141.13760723 52.60005099 141.13638438 48.54327393 141.13381577 C46.64284254 141.13316242 44.74240999 141.13391702 42.84197998 141.13629532 C28.52100193 141.15029733 14.32932247 140.5970551 0 140 C0 93.8 0 47.6 0 0 Z " fill="#FEFEFE" transform="translate(13,6)"/>
<path d="M0 0 C4.29 0 8.58 0 13 0 C13.49371094 1.92585938 13.98742187 3.85171875 14.49609375 5.8359375 C14.97582995 7.6992607 15.45558203 9.56257984 15.93579102 11.42578125 C16.43337438 13.35897132 16.92861119 15.29276488 17.42382812 17.2265625 C17.73642578 18.43828125 18.04902344 19.65 18.37109375 20.8984375 C18.8031311 22.57945557 18.8031311 22.57945557 19.24389648 24.29443359 C19.89091837 26.94015006 19.89091837 26.94015006 21 29 C21.20681396 28.19256348 21.41362793 27.38512695 21.62670898 26.55322266 C22.3945917 23.55975234 23.16450004 20.56681255 23.93579102 17.57421875 C24.43337438 15.64102868 24.92861119 13.70723512 25.42382812 11.7734375 C25.73642578 10.56171875 26.04902344 9.35 26.37109375 8.1015625 C26.65911865 6.98088379 26.94714355 5.86020508 27.24389648 4.70556641 C28 2 28 2 29 0 C31.97 0 34.94 0 38 0 C40.32282367 5.88176988 42.08324261 11.74603854 43.625 17.875 C44.05271425 19.56039783 44.48230998 21.24531964 44.9140625 22.9296875 C45.1917749 24.03159424 45.1917749 24.03159424 45.47509766 25.15576172 C45.9590983 27.07260114 45.9590983 27.07260114 47 29 C47.20681396 28.15703369 47.41362793 27.31406738 47.62670898 26.44555664 C48.3935847 23.32701488 49.16360506 20.20927178 49.93579102 17.09204102 C50.26974362 15.74111743 50.60243017 14.38988023 50.93383789 13.03833008 C51.40961363 11.09895723 51.89027896 9.16078595 52.37109375 7.22265625 C52.65911865 6.05484619 52.94714355 4.88703613 53.24389648 3.68383789 C54 1 54 1 55 0 C59.33315059 -0.1438629 63.66512361 -0.04208618 68 0 C65.47530978 10.32528003 62.7941974 20.59377002 59.90795898 30.82397461 C59.29838031 32.98761652 58.69498446 35.15292805 58.09179688 37.31835938 C57.70348954 38.70062329 57.31483199 40.08278889 56.92578125 41.46484375 C56.57942627 42.698396 56.23307129 43.93194824 55.8762207 45.20288086 C55 48 55 48 54 49 C51.81360547 49.07258946 49.62499611 49.08373783 47.4375 49.0625 C45.64119141 49.04896484 45.64119141 49.04896484 43.80859375 49.03515625 C42.88175781 49.02355469 41.95492187 49.01195312 41 49 C38.12584134 41.81460335 36.06148777 34.45065632 34 27 C31.12261914 34.19345215 29.07922362 41.54347391 27 49 C22.38 49 17.76 49 13 49 C11.14177544 42.66652596 9.29055224 36.33106383 7.44580078 29.99365234 C6.81719122 27.83781688 6.18666868 25.68253826 5.55419922 23.52783203 C4.64568193 20.4314568 3.74405242 17.33314729 2.84375 14.234375 C2.55939087 13.27070007 2.27503174 12.30702515 1.98205566 11.31414795 C1.72178589 10.41351624 1.46151611 9.51288452 1.19335938 8.58496094 C0.96241577 7.79442322 0.73147217 7.0038855 0.49353027 6.18939209 C0 4 0 4 0 0 Z " fill="#FFFFFF" transform="translate(301,26)"/>
<path d="M0 0 C24 0 24 0 31 4 C34.64909786 7.88452353 34.50259182 12.24213038 34.3515625 17.3359375 C33.85218783 21.1200878 32.61201533 23.24679465 30 26 C28.35438908 26.71706828 26.689016 27.39217832 25 28 C25.56847656 28.68964844 26.13695312 29.37929688 26.72265625 30.08984375 C41 47.46577629 41 47.46577629 41 49 C28.62977881 50.78131185 28.62977881 50.78131185 24.35644531 47.88671875 C21.01468101 44.67118412 18.51500143 40.88316221 16 37 C15.01 35.68 14.02 34.36 13 33 C12.67 38.28 12.34 43.56 12 49 C8.04 49 4.08 49 0 49 C0 32.83 0 16.66 0 0 Z M12 9 C12 12.96 12 16.92 12 21 C17.76887492 21.5547002 17.76887492 21.5547002 21 19 C22.08929596 16.04333953 22.28953237 14.65144782 21 11.75 C18.18790926 9.2894206 15.64972823 9.27545119 12 9 Z " fill="#FFFFFF" transform="translate(263,26)"/>
<path d="M0 0 C3.96 0 7.92 0 12 0 C12 6.6 12 13.2 12 20 C16.62 20 21.24 20 26 20 C26 13.4 26 6.8 26 0 C29.96 0 33.92 0 38 0 C38 16.17 38 32.34 38 49 C34.04 49 30.08 49 26 49 C26 42.73 26 36.46 26 30 C21.38 30 16.76 30 12 30 C12 36.27 12 42.54 12 49 C8.04 49 4.08 49 0 49 C0 32.83 0 16.66 0 0 Z " fill="#FFFFFF" transform="translate(416,26)"/>
<path d="M0 0 C3.96 0 7.92 0 12 0 C23.82491526 28.37163548 23.82491526 28.37163548 28.25 39.6875 C28.68034546 40.77973877 28.68034546 40.77973877 29.11938477 41.89404297 C31 46.75304314 31 46.75304314 31 49 C26.71 49 22.42 49 18 49 C17.01 45.7 16.02 42.4 15 39 C9.06 39 3.12 39 -3 39 C-3.33 40.98 -3.66 42.96 -4 45 C-4.66 46.32 -5.32 47.64 -6 49 C-10.29 49 -14.58 49 -19 49 C-16.95492855 42.68767527 -14.69067243 36.5227128 -12.20703125 30.37109375 C-11.85613937 29.49598648 -11.5052475 28.62087921 -11.14372253 27.71925354 C-10.03576607 24.95767726 -8.92419884 22.19757157 -7.8125 19.4375 C-7.05509812 17.55152883 -6.29793442 15.66546198 -5.54101562 13.77929688 C-3.69675996 9.18508816 -1.8492673 4.59219359 0 0 Z M5 18 C4.49384702 19.26839526 3.99530901 20.53983102 3.5 21.8125 C3.2215625 22.52019531 2.943125 23.22789063 2.65625 23.95703125 C1.8470838 26.11841216 1.8470838 26.11841216 2 29 C4.97 29 7.94 29 11 29 C9.68 25.37 8.36 21.74 7 18 C6.34 18 5.68 18 5 18 Z " fill="#FFFFFF" transform="translate(384,26)"/>
<path d="M0 0 C2.171875 1.10546875 2.171875 1.10546875 5.296875 3.10546875 C3.646875 6.40546875 1.996875 9.70546875 0.296875 13.10546875 C-0.940625 12.61046875 -0.940625 12.61046875 -2.203125 12.10546875 C-6.2905233 10.93764066 -9.47235844 10.95958025 -13.703125 11.10546875 C-13.703125 12.42546875 -13.703125 13.74546875 -13.703125 15.10546875 C-12.14851563 15.88470703 -12.14851563 15.88470703 -10.5625 16.6796875 C-9.19239646 17.38350781 -7.82262198 18.08796892 -6.453125 18.79296875 C-5.77121094 19.13263672 -5.08929688 19.47230469 -4.38671875 19.82226562 C0.51805913 22.36989297 3.7634928 25.03870436 6.296875 30.10546875 C6.67069354 35.71274692 6.48178327 39.27319413 3.296875 44.10546875 C-1.15800362 48.56034737 -5.83820867 49.83519362 -12.015625 50.41796875 C-18.73289077 49.84870894 -25.13626465 48.002271 -30.703125 44.10546875 C-30.03214828 39.91186426 -27.8472856 36.70212523 -25.703125 33.10546875 C-20.94279442 34.95670842 -20.94279442 34.95670842 -18.890625 36.23046875 C-15.49399364 37.58912129 -12.34212103 37.22676862 -8.703125 37.10546875 C-8.373125 35.78546875 -8.043125 34.46546875 -7.703125 33.10546875 C-8.46496094 32.63367187 -8.46496094 32.63367187 -9.2421875 32.15234375 C-24.94092028 22.39208292 -24.94092028 22.39208292 -26.703125 17.10546875 C-27.09927154 11.85652708 -26.56869817 8.55204781 -23.703125 4.10546875 C-17.0297705 -1.91682678 -8.62921524 -2.85562181 0 0 Z " fill="#FFFFFF" transform="translate(234.703125,25.89453125)"/>
<path d="M0 0 C11.55 0 23.1 0 35 0 C35 3.3 35 6.6 35 10 C31.37 10 27.74 10 24 10 C24 22.87 24 35.74 24 49 C20.04 49 16.08 49 12 49 C12 36.13 12 23.26 12 10 C8.04 10 4.08 10 0 10 C0 6.7 0 3.4 0 0 Z " fill="#FFFFFF" transform="translate(168,26)"/>
<path d="M0 0 C8.25 0 16.5 0 25 0 C25 8.25 25 16.5 25 25 C16.75 25 8.5 25 0 25 C0 16.75 0 8.5 0 0 Z " fill="#FFFFFF" transform="translate(100,6)"/>
<path d="M0 0 C8.25 0 16.5 0 25 0 C25 8.25 25 16.5 25 25 C16.75 25 8.5 25 0 25 C0 16.75 0 8.5 0 0 Z " fill="#FFFFFF" transform="translate(71,6)"/>
<path d="M0 0 C5.9090625 -0.0309375 5.9090625 -0.0309375 11.9375 -0.0625 C13.18136475 -0.071604 14.42522949 -0.08070801 15.70678711 -0.09008789 C17.16483765 -0.09383423 17.16483765 -0.09383423 18.65234375 -0.09765625 C20.15269165 -0.10551147 20.15269165 -0.10551147 21.68334961 -0.11352539 C24 0 24 0 25 1 C25.08726223 2.78071246 25.10699041 4.5648314 25.09765625 6.34765625 C25.09515869 7.31968994 25.09266113 8.29172363 25.09008789 9.29321289 C25.08098389 10.53707764 25.07187988 11.78094238 25.0625 13.0625 C25.041875 17.001875 25.02125 20.94125 25 25 C16.75 25 8.5 25 0 25 C0 16.75 0 8.5 0 0 Z " fill="#FFFFFF" transform="translate(42,6)"/>
<path d="M0 0 C3.96 0 7.92 0 12 0 C12 16.17 12 32.34 12 49 C8.04 49 4.08 49 0 49 C0 32.83 0 16.66 0 0 Z " fill="#FFFFFF" transform="translate(245,26)"/>
<path d="M0 0 C12.81151079 -0.48345324 12.81151079 -0.48345324 17.6875 1.5 C20.71392696 4.77181293 22.31442767 7.57494225 23 12 C22.80083606 16.97909854 21.70034771 20.15958275 18.5 24 C12.92241712 28.4620663 6.96138715 27.06328534 0 27 C0 18.09 0 9.18 0 0 Z M7 6 C7 10.95 7 15.9 7 21 C11.76328716 20.47548405 11.76328716 20.47548405 13.875 18.375 C15.51175762 14.9196228 14.92777204 12.64481875 14 9 C12.83115894 6.99515224 12.83115894 6.99515224 11 6 C9.68 6 8.36 6 7 6 Z " fill="#FFFFFF" transform="translate(350,95)"/>
<path d="M0 0 C1.16595703 0.0628418 1.16595703 0.0628418 2.35546875 0.12695312 C3.54462891 0.16079102 3.54462891 0.16079102 4.7578125 0.1953125 C6.70784495 0.25404842 8.65690187 0.34372659 10.60546875 0.43945312 C10.68685301 3.31503016 10.74614726 6.18827574 10.79296875 9.06445312 C10.81810547 9.87269531 10.84324219 10.6809375 10.86914062 11.51367188 C10.93096617 16.58336695 10.45982237 20.05770931 7.60546875 24.43945312 C4.89984132 25.79226684 2.6865322 25.64554675 -0.33203125 25.68945312 C-1.39292969 25.71523437 -2.45382812 25.74101562 -3.546875 25.76757812 C-6.39453125 25.43945312 -6.39453125 25.43945312 -8.2734375 24.11132812 C-9.39453125 22.43945312 -9.39453125 22.43945312 -9.39453125 19.43945312 C-5.33084446 18.66541755 -1.53027952 18.34098293 2.60546875 18.43945312 C-5.41600463 18.25091422 -5.41600463 18.25091422 -8.95703125 15.31445312 C-10.78172928 11.66505706 -10.97103987 9.47501345 -10.39453125 5.43945312 C-7.64780622 0.44475051 -5.33561295 -0.11400882 0 0 Z M-0.39453125 5.43945312 C-1.38453125 6.09945312 -2.37453125 6.75945312 -3.39453125 7.43945312 C-3.12776921 9.42436954 -3.12776921 9.42436954 -2.39453125 11.43945312 C-1.40453125 11.76945312 -0.41453125 12.09945312 0.60546875 12.43945312 C1.59546875 11.77945313 2.58546875 11.11945313 3.60546875 10.43945312 C3.33870671 8.45453671 3.33870671 8.45453671 2.60546875 6.43945312 C1.61546875 6.10945313 0.62546875 5.77945313 -0.39453125 5.43945312 Z " fill="#FFFFFF" transform="translate(393.39453125,104.560546875)"/>
<path d="M0 0 C3.58875 -0.0928125 3.58875 -0.0928125 7.25 -0.1875 C8.37003418 -0.22846802 8.37003418 -0.22846802 9.51269531 -0.27026367 C12.55732181 -0.30834198 14.71214712 -0.15064764 17.42578125 1.26953125 C19.54559442 3.59974771 19.85936225 5.91070909 20.109375 8.99609375 C19.94722455 11.96692163 18.85731581 13.72994734 17 16 C13.78548731 17.60725635 10.56387464 17.05748185 7 17 C7 20.3 7 23.6 7 27 C4.69 27 2.38 27 0 27 C0 18.09 0 9.18 0 0 Z M7 5 C7 7.31 7 9.62 7 12 C8.65 11.34 10.3 10.68 12 10 C11.67 8.68 11.34 7.36 11 6 C9.68 5.67 8.36 5.34 7 5 Z " fill="#FFFFFF" transform="translate(170,95)"/>
<path d="M0 0 C0.85110352 0.04552002 1.70220703 0.09104004 2.57910156 0.13793945 C5.30160156 0.24106445 8.02410156 0.34418945 10.82910156 0.45043945 C10.82910156 6.06043945 10.82910156 11.67043945 10.82910156 17.45043945 C8.10660156 17.55356445 5.38410156 17.65668945 2.57910156 17.76293945 C1.72799805 17.80845947 0.87689453 17.85397949 0 17.90087891 C-4.04156968 17.97506689 -5.59705442 17.97527506 -8.68652344 15.1496582 C-10.63886965 11.59947075 -10.74209874 9.44884155 -10.17089844 5.45043945 C-7.48320945 0.56308921 -5.24099165 -0.09620484 0 0 Z M-0.17089844 5.45043945 C-1.16089844 6.11043945 -2.15089844 6.77043945 -3.17089844 7.45043945 C-2.9041364 9.43535587 -2.9041364 9.43535587 -2.17089844 11.45043945 C-1.18089844 11.78043945 -0.19089844 12.11043945 0.82910156 12.45043945 C1.81910156 11.79043945 2.80910156 11.13043945 3.82910156 10.45043945 C3.56233952 8.46552303 3.56233952 8.46552303 2.82910156 6.45043945 C1.83910156 6.12043945 0.84910156 5.79043945 -0.17089844 5.45043945 Z " fill="#FFFFFF" transform="translate(438.1708984375,104.549560546875)"/>
<path d="M0 0 C0.85110352 0.04552002 1.70220703 0.09104004 2.57910156 0.13793945 C5.30160156 0.24106445 8.02410156 0.34418945 10.82910156 0.45043945 C10.82910156 6.06043945 10.82910156 11.67043945 10.82910156 17.45043945 C8.10660156 17.55356445 5.38410156 17.65668945 2.57910156 17.76293945 C1.72799805 17.80845947 0.87689453 17.85397949 0 17.90087891 C-4.04156968 17.97506689 -5.59705442 17.97527506 -8.68652344 15.1496582 C-10.63886965 11.59947075 -10.74209874 9.44884155 -10.17089844 5.45043945 C-7.48320945 0.56308921 -5.24099165 -0.09620484 0 0 Z M-0.17089844 5.45043945 C-1.16089844 6.11043945 -2.15089844 6.77043945 -3.17089844 7.45043945 C-2.9041364 9.43535587 -2.9041364 9.43535587 -2.17089844 11.45043945 C-1.18089844 11.78043945 -0.19089844 12.11043945 0.82910156 12.45043945 C1.81910156 11.79043945 2.80910156 11.13043945 3.82910156 10.45043945 C3.56233952 8.46552303 3.56233952 8.46552303 2.82910156 6.45043945 C1.83910156 6.12043945 0.84910156 5.79043945 -0.17089844 5.45043945 Z " fill="#FFFFFF" transform="translate(236.1708984375,104.549560546875)"/>
<path d="M0 0 C2.578125 -0.0825 5.15625 -0.165 7.8125 -0.25 C8.62050049 -0.28641602 9.42850098 -0.32283203 10.26098633 -0.36035156 C13.43631905 -0.40974828 15.47128091 -0.42132303 18 1.59375 C19.32175262 4.77421725 19.29051506 7.31616466 19.1875 10.75 C19.16042969 11.92046875 19.13335937 13.0909375 19.10546875 14.296875 C19.07066406 15.18890625 19.03585937 16.0809375 19 17 C16.69 17 14.38 17 12 17 C11.67 13.37 11.34 9.74 11 6 C10.01 6 9.02 6 8 6 C7.67 9.63 7.34 13.26 7 17 C4.69 17 2.38 17 0 17 C0 11.39 0 5.78 0 0 Z " fill="#FFFFFF" transform="translate(320,105)"/>
<path d="M0 0 C2.625 1.6875 2.625 1.6875 4 4 C4 5.65 4 7.3 4 9 C0.04 9 -3.92 9 -8 9 C-8 9.66 -8 10.32 -8 11 C-4.95613276 11.08226668 -2.92824652 10.97608217 0 10 C2.1875 10.9375 2.1875 10.9375 4 12 C2.25 15.875 2.25 15.875 0 17 C-5.06037384 17.62694897 -8.79361251 17.79621574 -13.125 14.9375 C-15.50177019 11.21389337 -15.77533825 9.34189423 -15 5 C-11.26391683 -0.85319697 -6.41039178 -1.16749125 0 0 Z " fill="#FFFFFF" transform="translate(314,105)"/>
<path d="M0 0 C2.578125 -0.061875 5.15625 -0.12375 7.8125 -0.1875 C9.02450073 -0.22846802 9.02450073 -0.22846802 10.26098633 -0.27026367 C13.12483297 -0.30367701 15.44016543 -0.29741212 18 1.0625 C19.56530876 4.09528573 19.28041899 6.81144345 19.1875 10.1875 C19.16042969 11.45980469 19.13335937 12.73210937 19.10546875 14.04296875 C19.07066406 15.01878906 19.03585937 15.99460937 19 17 C17.02 17 15.04 17 13 17 C12.67 13.7 12.34 10.4 12 7 C10.68 7 9.36 7 8 7 C7.67 10.3 7.34 13.6 7 17 C4.69 17 2.38 17 0 17 C0 11.39 0 5.78 0 0 Z " fill="#FFFFFF" transform="translate(249,105)"/>
<path d="M0 0 C2.625 1.6875 2.625 1.6875 4 4 C4 5.65 4 7.3 4 9 C-1.445 9.495 -1.445 9.495 -7 10 C-3.31730407 11.26722675 -3.31730407 11.26722675 -0.9375 10.4375 C-0.298125 10.293125 0.34125 10.14875 1 10 C1.99 10.66 2.98 11.32 4 12 C2.25 15.875 2.25 15.875 0 17 C-4.03677989 17.56443471 -8.20870033 18.08563617 -11.8046875 15.90625 C-14.4266494 13.12134131 -14.99734017 11.15427007 -15.0625 7.375 C-12.57174813 -0.53680007 -7.64801093 -1.25772937 0 0 Z " fill="#FFFFFF" transform="translate(205,105)"/>
<path d="M0 0 C2.31 0 4.62 0 7 0 C7 1.98 7 3.96 7 6 C8.32 6 9.64 6 11 6 C11 7.65 11 9.3 11 11 C9.68 11 8.36 11 7 11 C7 12.98 7 14.96 7 17 C7.99 17 8.98 17 10 17 C10.33 18.98 10.66 20.96 11 23 C5.78074866 23.42780749 5.78074866 23.42780749 3 23 C0.16049019 20.07175551 0.01275671 18.25938651 -0.1875 14.1875 C-0.125625 13.135625 -0.06375 12.08375 0 11 C-0.66 11 -1.32 11 -2 11 C-2 9.35 -2 7.7 -2 6 C-1.34 6 -0.68 6 0 6 C0 4.02 0 2.04 0 0 Z " fill="#FFFFFF" transform="translate(417,99)"/>
<path d="M0 0 C0.91007813 0.00902344 1.82015625 0.01804687 2.7578125 0.02734375 C3.45648438 0.03894531 4.15515625 0.05054687 4.875 0.0625 C5.205 1.0525 5.535 2.0425 5.875 3.0625 C4.885 4.0525 3.895 5.0425 2.875 6.0625 C3.865 6.7225 4.855 7.3825 5.875 8.0625 C6.1875 11.5625 6.1875 11.5625 5.875 15.0625 C3.875 17.0625 3.875 17.0625 1.34375 17.29296875 C-0.12578125 17.27169922 -0.12578125 17.27169922 -1.625 17.25 C-3.09453125 17.24033203 -3.09453125 17.24033203 -4.59375 17.23046875 C-7.125 17.0625 -7.125 17.0625 -9.125 16.0625 C-8.465 14.4125 -7.805 12.7625 -7.125 11.0625 C-5.805 11.0625 -4.485 11.0625 -3.125 11.0625 C-4.775 9.7425 -6.425 8.4225 -8.125 7.0625 C-7.75 4.125 -7.75 4.125 -7.125 1.0625 C-4.60024538 -0.19987731 -2.81299534 -0.03606404 0 0 Z " fill="#FFFFFF" transform="translate(219.125,104.9375)"/>
<path d="M0 0 C2.31 0 4.62 0 7 0 C7 1.98 7 3.96 7 6 C7.99 6 8.98 6 10 6 C10 7.65 10 9.3 10 11 C9.01 11 8.02 11 7 11 C7 12.98 7 14.96 7 17 C7.99 17 8.98 17 10 17 C10.33 18.98 10.66 20.96 11 23 C9.54257537 23.08096803 8.08387193 23.13917774 6.625 23.1875 C5.81289063 23.22230469 5.00078125 23.25710937 4.1640625 23.29296875 C3.44992187 23.19628906 2.73578125 23.09960938 2 23 C-0.13586678 19.79619983 -0.23132175 18.98060033 -0.125 15.3125 C-0.10695313 14.50425781 -0.08890625 13.69601563 -0.0703125 12.86328125 C-0.04710937 12.24839844 -0.02390625 11.63351563 0 11 C-0.66 11 -1.32 11 -2 11 C-2 9.35 -2 7.7 -2 6 C-1.34 6 -0.68 6 0 6 C0 4.02 0 2.04 0 0 Z " fill="#FFFFFF" transform="translate(272,99)"/>
<path d="M0 0 C5.28 0 10.56 0 16 0 C15.34 1.98 14.68 3.96 14 6 C12.02 6.33 10.04 6.66 8 7 C7.67 10.3 7.34 13.6 7 17 C4.69 17 2.38 17 0 17 C0 11.39 0 5.78 0 0 Z " fill="#FFFFFF" transform="translate(284,105)"/>
<path d="M0 0 C1.98 0 3.96 0 6 0 C6 8.91 6 17.82 6 27 C4.02 27 2.04 27 0 27 C0 18.09 0 9.18 0 0 Z " fill="#FFFFFF" transform="translate(452,95)"/>
<path d="M0 0 C2.31 0 4.62 0 7 0 C7 5.61 7 11.22 7 17 C4.69 17 2.38 17 0 17 C0 11.39 0 5.78 0 0 Z " fill="#FFFFFF" transform="translate(406,105)"/>
<path d="M0 0 C2.31 0 4.62 0 7 0 C7 5.61 7 11.22 7 17 C4.69 17 2.38 17 0 17 C0 11.39 0 5.78 0 0 Z " fill="#FFFFFF" transform="translate(374,105)"/>
<path d="M0 0 C2.625 0.375 2.625 0.375 5 1 C5.38218767 2.65614657 5.71395102 4.32457024 6 6 C5 7 5 7 1.9375 7.0625 C0.968125 7.041875 -0.00125 7.02125 -1 7 C-1.625 4.625 -1.625 4.625 -2 2 C-1.34 1.34 -0.68 0.68 0 0 Z " fill="#FFFFFF" transform="translate(408,95)"/>
<path d="M0 0 C2.625 0.375 2.625 0.375 5 1 C5.38218767 2.65614657 5.71395102 4.32457024 6 6 C5 7 5 7 1.9375 7.0625 C0.968125 7.041875 -0.00125 7.02125 -1 7 C-1.625 4.625 -1.625 4.625 -2 2 C-1.34 1.34 -0.68 0.68 0 0 Z " fill="#FFFFFF" transform="translate(376,95)"/>
</svg>
