<?xml version="1.0" encoding="UTF-8"?>
<svg xmlns="http://www.w3.org/2000/svg" xmlns:xlink="http://www.w3.org/1999/xlink" width="63px" height="21px" viewBox="0 0 62 21" version="1.1">
<g id="surface1">
<path style=" stroke:none;fill-rule:nonzero;fill:rgb(99.607843%,99.607843%,99.607843%);fill-opacity:1;" d="M 1.699219 0.796875 C 2.738281 0.796875 3.773438 0.796875 4.839844 0.796875 C 4.96875 0.929688 4.96875 0.929688 4.988281 1.183594 C 4.988281 1.355469 4.988281 1.355469 4.984375 1.527344 C 4.988281 1.65625 4.988281 1.785156 4.988281 1.917969 C 4.984375 2.058594 4.984375 2.203125 4.984375 2.347656 C 4.984375 2.496094 4.984375 2.648438 4.984375 2.800781 C 4.984375 3.296875 4.984375 3.792969 4.984375 4.285156 C 4.984375 4.628906 4.984375 4.972656 4.984375 5.3125 C 4.980469 6.125 4.980469 6.9375 4.980469 7.746094 C 4.976562 8.671875 4.976562 9.59375 4.976562 10.515625 C 4.976562 12.417969 4.972656 14.316406 4.96875 16.214844 C 6.351562 16.171875 7.734375 16.128906 9.15625 16.082031 C 9.15625 13.40625 9.15625 10.730469 9.15625 7.976562 C 9.027344 7.976562 8.898438 7.976562 8.765625 7.976562 C 8.765625 10.519531 8.765625 13.0625 8.765625 15.683594 C 7.683594 15.683594 6.605469 15.683594 5.492188 15.683594 C 5.492188 12.042969 5.492188 8.402344 5.492188 4.652344 C 7.84375 4.570312 10.179688 4.496094 12.527344 4.5 C 12.996094 4.503906 13.460938 4.5 13.929688 4.5 C 14.226562 4.5 14.523438 4.5 14.824219 4.5 C 14.960938 4.5 15.101562 4.5 15.246094 4.5 C 15.433594 4.5 15.433594 4.5 15.628906 4.5 C 15.796875 4.5 15.796875 4.5 15.964844 4.503906 C 16.21875 4.519531 16.21875 4.519531 16.351562 4.652344 C 16.363281 4.851562 16.367188 5.050781 16.367188 5.25 C 16.363281 5.378906 16.363281 5.507812 16.363281 5.636719 C 16.363281 5.851562 16.363281 5.851562 16.363281 6.066406 C 16.363281 6.214844 16.363281 6.363281 16.359375 6.515625 C 16.351562 8.355469 16.320312 10.195312 16.285156 12.035156 C 16.277344 12.394531 16.273438 12.75 16.265625 13.105469 C 16.25 13.964844 16.234375 14.824219 16.21875 15.683594 C 15.699219 15.6875 15.179688 15.691406 14.65625 15.691406 C 14.433594 15.695312 14.433594 15.695312 14.207031 15.695312 C 14.066406 15.695312 13.925781 15.695312 13.78125 15.695312 C 13.582031 15.699219 13.582031 15.699219 13.382812 15.699219 C 13.082031 15.683594 13.082031 15.683594 12.949219 15.550781 C 12.9375 15.3125 12.933594 15.078125 12.933594 14.839844 C 12.933594 14.613281 12.933594 14.613281 12.933594 14.378906 C 12.933594 14.214844 12.9375 14.050781 12.9375 13.878906 C 12.9375 13.710938 12.9375 13.542969 12.9375 13.371094 C 12.9375 12.925781 12.9375 12.476562 12.941406 12.03125 C 12.941406 11.574219 12.941406 11.117188 12.941406 10.660156 C 12.945312 9.765625 12.945312 8.871094 12.949219 7.976562 C 12.777344 7.976562 12.605469 7.976562 12.425781 7.976562 C 12.425781 10.695312 12.425781 13.414062 12.425781 16.214844 C 13.894531 16.214844 15.363281 16.214844 16.875 16.214844 C 16.875 11.128906 16.875 6.039062 16.875 0.796875 C 17.867188 0.796875 18.859375 0.796875 19.882812 0.796875 C 20.011719 0.929688 20.011719 0.929688 20.027344 1.234375 C 20.027344 1.371094 20.027344 1.507812 20.027344 1.648438 C 20.027344 1.882812 20.027344 1.882812 20.027344 2.121094 C 20.027344 2.292969 20.027344 2.464844 20.027344 2.640625 C 20.027344 2.824219 20.027344 3.003906 20.027344 3.1875 C 20.027344 3.683594 20.027344 4.179688 20.027344 4.675781 C 20.023438 5.191406 20.023438 5.710938 20.023438 6.226562 C 20.023438 7.207031 20.023438 8.1875 20.023438 9.167969 C 20.019531 10.285156 20.019531 11.398438 20.019531 12.515625 C 20.019531 14.8125 20.015625 17.109375 20.011719 19.40625 C 18.023438 19.503906 16.039062 19.558594 14.042969 19.554688 C 13.785156 19.554688 13.527344 19.554688 13.269531 19.554688 C 12.738281 19.554688 12.203125 19.554688 11.667969 19.554688 C 10.992188 19.554688 10.316406 19.554688 9.640625 19.554688 C 9.109375 19.554688 8.582031 19.554688 8.050781 19.554688 C 7.800781 19.554688 7.554688 19.554688 7.304688 19.554688 C 5.429688 19.558594 3.574219 19.484375 1.699219 19.40625 C 1.699219 13.265625 1.699219 7.125 1.699219 0.796875 Z M 1.699219 0.796875 "/>
<path style=" stroke:none;fill-rule:nonzero;fill:rgb(100%,100%,100%);fill-opacity:1;" d="M 39.371094 3.457031 C 39.933594 3.457031 40.492188 3.457031 41.070312 3.457031 C 41.136719 3.710938 41.199219 3.96875 41.265625 4.230469 C 41.332031 4.480469 41.394531 4.726562 41.457031 4.972656 C 41.519531 5.230469 41.585938 5.488281 41.648438 5.746094 C 41.691406 5.90625 41.730469 6.066406 41.773438 6.234375 C 41.832031 6.457031 41.832031 6.457031 41.886719 6.683594 C 41.972656 7.035156 41.972656 7.035156 42.117188 7.308594 C 42.144531 7.203125 42.171875 7.09375 42.199219 6.984375 C 42.300781 6.585938 42.402344 6.1875 42.503906 5.792969 C 42.566406 5.535156 42.632812 5.277344 42.695312 5.019531 C 42.738281 4.859375 42.777344 4.699219 42.820312 4.53125 C 42.859375 4.382812 42.894531 4.234375 42.933594 4.082031 C 43.035156 3.722656 43.035156 3.722656 43.164062 3.457031 C 43.554688 3.457031 43.941406 3.457031 44.339844 3.457031 C 44.644531 4.238281 44.875 5.015625 45.078125 5.832031 C 45.132812 6.054688 45.191406 6.28125 45.246094 6.503906 C 45.28125 6.648438 45.28125 6.648438 45.320312 6.800781 C 45.382812 7.054688 45.382812 7.054688 45.519531 7.308594 C 45.546875 7.199219 45.574219 7.085938 45.601562 6.96875 C 45.703125 6.554688 45.800781 6.140625 45.902344 5.726562 C 45.945312 5.546875 45.988281 5.367188 46.035156 5.1875 C 46.097656 4.929688 46.160156 4.671875 46.222656 4.414062 C 46.257812 4.261719 46.296875 4.105469 46.335938 3.945312 C 46.433594 3.589844 46.433594 3.589844 46.566406 3.457031 C 47.132812 3.4375 47.699219 3.449219 48.265625 3.457031 C 47.9375 4.828125 47.585938 6.191406 47.207031 7.550781 C 47.128906 7.839844 47.046875 8.128906 46.96875 8.414062 C 46.917969 8.597656 46.867188 8.78125 46.816406 8.96875 C 46.773438 9.128906 46.726562 9.292969 46.679688 9.464844 C 46.566406 9.835938 46.566406 9.835938 46.433594 9.96875 C 46.148438 9.976562 45.863281 9.980469 45.578125 9.976562 C 45.339844 9.976562 45.339844 9.976562 45.101562 9.972656 C 44.980469 9.972656 44.859375 9.96875 44.734375 9.96875 C 44.359375 9.011719 44.089844 8.035156 43.820312 7.042969 C 43.441406 8 43.175781 8.976562 42.902344 9.96875 C 42.296875 9.96875 41.695312 9.96875 41.070312 9.96875 C 40.828125 9.125 40.585938 8.285156 40.34375 7.441406 C 40.261719 7.15625 40.179688 6.871094 40.097656 6.582031 C 39.980469 6.171875 39.859375 5.757812 39.742188 5.347656 C 39.707031 5.21875 39.667969 5.089844 39.628906 4.960938 C 39.597656 4.839844 39.5625 4.71875 39.527344 4.597656 C 39.496094 4.492188 39.46875 4.386719 39.4375 4.277344 C 39.371094 3.988281 39.371094 3.988281 39.371094 3.457031 Z M 39.371094 3.457031 "/>
<path style=" stroke:none;fill-rule:nonzero;fill:rgb(100%,100%,100%);fill-opacity:1;" d="M 34.402344 3.457031 C 37.539062 3.457031 37.539062 3.457031 38.457031 3.988281 C 38.933594 4.503906 38.914062 5.082031 38.894531 5.761719 C 38.828125 6.261719 38.667969 6.546875 38.324219 6.910156 C 38.109375 7.007812 37.890625 7.097656 37.671875 7.175781 C 37.746094 7.269531 37.820312 7.359375 37.894531 7.453125 C 39.765625 9.765625 39.765625 9.765625 39.765625 9.96875 C 38.144531 10.207031 38.144531 10.207031 37.585938 9.820312 C 37.148438 9.394531 36.824219 8.890625 36.492188 8.375 C 36.363281 8.199219 36.234375 8.023438 36.101562 7.839844 C 36.058594 8.542969 36.015625 9.246094 35.96875 9.96875 C 35.453125 9.96875 34.933594 9.96875 34.402344 9.96875 C 34.402344 7.820312 34.402344 5.671875 34.402344 3.457031 Z M 35.96875 4.652344 C 35.96875 5.179688 35.96875 5.703125 35.96875 6.246094 C 36.726562 6.320312 36.726562 6.320312 37.148438 5.980469 C 37.289062 5.589844 37.316406 5.402344 37.148438 5.015625 C 36.78125 4.691406 36.449219 4.6875 35.96875 4.652344 Z M 35.96875 4.652344 "/>
<path style=" stroke:none;fill-rule:nonzero;fill:rgb(100%,100%,100%);fill-opacity:1;" d="M 54.414062 3.457031 C 54.929688 3.457031 55.449219 3.457031 55.984375 3.457031 C 55.984375 4.332031 55.984375 5.210938 55.984375 6.113281 C 56.585938 6.113281 57.191406 6.113281 57.8125 6.113281 C 57.8125 5.238281 57.8125 4.359375 57.8125 3.457031 C 58.332031 3.457031 58.851562 3.457031 59.382812 3.457031 C 59.382812 5.605469 59.382812 7.753906 59.382812 9.96875 C 58.867188 9.96875 58.347656 9.96875 57.8125 9.96875 C 57.8125 9.136719 57.8125 8.300781 57.8125 7.441406 C 57.210938 7.441406 56.605469 7.441406 55.984375 7.441406 C 55.984375 8.277344 55.984375 9.109375 55.984375 9.96875 C 55.464844 9.96875 54.945312 9.96875 54.414062 9.96875 C 54.414062 7.820312 54.414062 5.671875 54.414062 3.457031 Z M 54.414062 3.457031 "/>
<path style=" stroke:none;fill-rule:nonzero;fill:rgb(100%,100%,100%);fill-opacity:1;" d="M 50.226562 3.457031 C 50.746094 3.457031 51.265625 3.457031 51.796875 3.457031 C 53.34375 7.226562 53.34375 7.226562 53.921875 8.730469 C 53.980469 8.875 53.980469 8.875 54.035156 9.023438 C 54.28125 9.667969 54.28125 9.667969 54.28125 9.96875 C 53.722656 9.96875 53.160156 9.96875 52.582031 9.96875 C 52.453125 9.53125 52.324219 9.089844 52.191406 8.640625 C 51.414062 8.640625 50.636719 8.640625 49.835938 8.640625 C 49.792969 8.902344 49.75 9.164062 49.703125 9.4375 C 49.617188 9.613281 49.53125 9.789062 49.441406 9.96875 C 48.882812 9.96875 48.320312 9.96875 47.742188 9.96875 C 48.011719 9.128906 48.304688 8.308594 48.632812 7.492188 C 48.675781 7.375 48.722656 7.257812 48.769531 7.140625 C 48.914062 6.773438 49.0625 6.40625 49.207031 6.039062 C 49.304688 5.789062 49.402344 5.539062 49.503906 5.289062 C 49.746094 4.675781 49.984375 4.066406 50.226562 3.457031 Z M 50.882812 5.847656 C 50.816406 6.015625 50.75 6.1875 50.6875 6.355469 C 50.648438 6.449219 50.613281 6.542969 50.574219 6.640625 C 50.46875 6.925781 50.46875 6.925781 50.488281 7.308594 C 50.878906 7.308594 51.265625 7.308594 51.667969 7.308594 C 51.492188 6.828125 51.320312 6.34375 51.144531 5.847656 C 51.058594 5.847656 50.972656 5.847656 50.882812 5.847656 Z M 50.882812 5.847656 "/>
<path style=" stroke:none;fill-rule:nonzero;fill:rgb(100%,100%,100%);fill-opacity:1;" d="M 30.699219 3.441406 C 30.984375 3.589844 30.984375 3.589844 31.390625 3.855469 C 31.175781 4.292969 30.960938 4.730469 30.738281 5.183594 C 30.578125 5.117188 30.578125 5.117188 30.410156 5.050781 C 29.875 4.894531 29.460938 4.898438 28.90625 4.917969 C 28.90625 5.09375 28.90625 5.269531 28.90625 5.449219 C 29.109375 5.554688 29.109375 5.554688 29.316406 5.660156 C 29.496094 5.753906 29.675781 5.847656 29.855469 5.941406 C 29.945312 5.984375 30.035156 6.03125 30.125 6.078125 C 30.765625 6.414062 31.191406 6.769531 31.523438 7.441406 C 31.570312 8.1875 31.546875 8.660156 31.128906 9.304688 C 30.546875 9.894531 29.9375 10.066406 29.128906 10.144531 C 28.25 10.066406 27.410156 9.820312 26.683594 9.304688 C 26.769531 8.746094 27.058594 8.320312 27.335938 7.839844 C 27.960938 8.085938 27.960938 8.085938 28.230469 8.257812 C 28.671875 8.4375 29.085938 8.390625 29.5625 8.375 C 29.605469 8.199219 29.648438 8.023438 29.691406 7.839844 C 29.59375 7.777344 29.59375 7.777344 29.492188 7.714844 C 27.4375 6.417969 27.4375 6.417969 27.207031 5.714844 C 27.15625 5.015625 27.222656 4.578125 27.597656 3.988281 C 28.472656 3.1875 29.570312 3.0625 30.699219 3.441406 Z M 30.699219 3.441406 "/>
<path style=" stroke:none;fill-rule:nonzero;fill:rgb(100%,100%,100%);fill-opacity:1;" d="M 21.976562 3.457031 C 23.484375 3.457031 24.996094 3.457031 26.554688 3.457031 C 26.554688 3.894531 26.554688 4.332031 26.554688 4.785156 C 26.078125 4.785156 25.601562 4.785156 25.113281 4.785156 C 25.113281 6.496094 25.113281 8.207031 25.113281 9.96875 C 24.597656 9.96875 24.078125 9.96875 23.542969 9.96875 C 23.542969 8.257812 23.542969 6.546875 23.542969 4.785156 C 23.027344 4.785156 22.507812 4.785156 21.976562 4.785156 C 21.976562 4.347656 21.976562 3.90625 21.976562 3.457031 Z M 21.976562 3.457031 "/>
<path style=" stroke:none;fill-rule:nonzero;fill:rgb(100%,100%,100%);fill-opacity:1;" d="M 13.082031 0.796875 C 14.160156 0.796875 15.238281 0.796875 16.351562 0.796875 C 16.351562 1.894531 16.351562 2.992188 16.351562 4.121094 C 15.269531 4.121094 14.191406 4.121094 13.082031 4.121094 C 13.082031 3.023438 13.082031 1.925781 13.082031 0.796875 Z M 13.082031 0.796875 "/>
<path style=" stroke:none;fill-rule:nonzero;fill:rgb(100%,100%,100%);fill-opacity:1;" d="M 9.285156 0.796875 C 10.367188 0.796875 11.445312 0.796875 12.558594 0.796875 C 12.558594 1.894531 12.558594 2.992188 12.558594 4.121094 C 11.476562 4.121094 10.398438 4.121094 9.285156 4.121094 C 9.285156 3.023438 9.285156 1.925781 9.285156 0.796875 Z M 9.285156 0.796875 "/>
<path style=" stroke:none;fill-rule:nonzero;fill:rgb(100%,100%,100%);fill-opacity:1;" d="M 5.492188 0.796875 C 6.265625 0.792969 6.265625 0.792969 7.054688 0.789062 C 7.21875 0.789062 7.378906 0.785156 7.546875 0.785156 C 7.738281 0.785156 7.738281 0.785156 7.933594 0.785156 C 8.128906 0.785156 8.128906 0.785156 8.328125 0.78125 C 8.632812 0.796875 8.632812 0.796875 8.765625 0.929688 C 8.773438 1.167969 8.777344 1.402344 8.777344 1.640625 C 8.777344 1.769531 8.777344 1.898438 8.777344 2.03125 C 8.773438 2.199219 8.773438 2.363281 8.773438 2.535156 C 8.769531 3.058594 8.765625 3.582031 8.765625 4.121094 C 7.683594 4.121094 6.605469 4.121094 5.492188 4.121094 C 5.492188 3.023438 5.492188 1.925781 5.492188 0.796875 Z M 5.492188 0.796875 "/>
<path style=" stroke:none;fill-rule:nonzero;fill:rgb(100%,100%,100%);fill-opacity:1;" d="M 32.046875 3.457031 C 32.5625 3.457031 33.082031 3.457031 33.617188 3.457031 C 33.617188 5.605469 33.617188 7.753906 33.617188 9.96875 C 33.097656 9.96875 32.582031 9.96875 32.046875 9.96875 C 32.046875 7.820312 32.046875 5.671875 32.046875 3.457031 Z M 32.046875 3.457031 "/>
<path style=" stroke:none;fill-rule:nonzero;fill:rgb(100%,100%,100%);fill-opacity:1;" d="M 45.78125 12.625 C 47.457031 12.5625 47.457031 12.5625 48.09375 12.824219 C 48.488281 13.261719 48.699219 13.632812 48.789062 14.222656 C 48.761719 14.882812 48.617188 15.304688 48.199219 15.816406 C 47.472656 16.410156 46.691406 16.222656 45.78125 16.214844 C 45.78125 15.03125 45.78125 13.847656 45.78125 12.625 Z M 46.695312 13.425781 C 46.695312 14.082031 46.695312 14.738281 46.695312 15.417969 C 47.320312 15.347656 47.320312 15.347656 47.59375 15.070312 C 47.808594 14.609375 47.734375 14.308594 47.613281 13.824219 C 47.457031 13.554688 47.457031 13.554688 47.21875 13.425781 C 47.046875 13.425781 46.875 13.425781 46.695312 13.425781 Z M 46.695312 13.425781 "/>
<path style=" stroke:none;fill-rule:nonzero;fill:rgb(100%,100%,100%);fill-opacity:1;" d="M 51.457031 13.898438 C 51.609375 13.90625 51.609375 13.90625 51.765625 13.914062 C 51.921875 13.917969 51.921875 13.917969 52.078125 13.921875 C 52.335938 13.929688 52.589844 13.941406 52.84375 13.957031 C 52.855469 14.339844 52.863281 14.71875 52.867188 15.101562 C 52.871094 15.210938 52.875 15.316406 52.878906 15.425781 C 52.886719 16.101562 52.824219 16.5625 52.453125 17.144531 C 52.097656 17.324219 51.808594 17.304688 51.414062 17.3125 C 51.273438 17.316406 51.136719 17.320312 50.992188 17.320312 C 50.621094 17.277344 50.621094 17.277344 50.375 17.101562 C 50.226562 16.878906 50.226562 16.878906 50.226562 16.480469 C 50.757812 16.378906 51.257812 16.335938 51.796875 16.347656 C 50.75 16.324219 50.75 16.324219 50.285156 15.933594 C 50.046875 15.449219 50.023438 15.15625 50.097656 14.621094 C 50.457031 13.957031 50.757812 13.882812 51.457031 13.898438 Z M 51.40625 14.621094 C 51.277344 14.707031 51.144531 14.796875 51.011719 14.886719 C 51.046875 15.148438 51.046875 15.148438 51.144531 15.417969 C 51.273438 15.460938 51.402344 15.503906 51.535156 15.550781 C 51.664062 15.464844 51.792969 15.375 51.929688 15.285156 C 51.894531 15.019531 51.894531 15.019531 51.796875 14.753906 C 51.667969 14.710938 51.539062 14.664062 51.40625 14.621094 Z M 51.40625 14.621094 "/>
<path style=" stroke:none;fill-rule:nonzero;fill:rgb(100%,100%,100%);fill-opacity:1;" d="M 22.234375 12.625 C 22.707031 12.613281 22.707031 12.613281 23.183594 12.601562 C 23.332031 12.597656 23.332031 12.597656 23.480469 12.589844 C 23.878906 12.585938 24.160156 12.605469 24.515625 12.796875 C 24.792969 13.105469 24.832031 13.414062 24.867188 13.820312 C 24.84375 14.21875 24.703125 14.453125 24.460938 14.753906 C 24.039062 14.964844 23.617188 14.894531 23.152344 14.886719 C 23.152344 15.324219 23.152344 15.761719 23.152344 16.214844 C 22.851562 16.214844 22.546875 16.214844 22.234375 16.214844 C 22.234375 15.03125 22.234375 13.847656 22.234375 12.625 Z M 23.152344 13.292969 C 23.152344 13.597656 23.152344 13.90625 23.152344 14.222656 C 23.367188 14.132812 23.582031 14.046875 23.804688 13.957031 C 23.761719 13.78125 23.71875 13.605469 23.675781 13.425781 C 23.503906 13.378906 23.328125 13.335938 23.152344 13.292969 Z M 23.152344 13.292969 "/>
<path style=" stroke:none;fill-rule:nonzero;fill:rgb(100%,100%,100%);fill-opacity:1;" d="M 57.3125 13.894531 C 57.425781 13.902344 57.535156 13.90625 57.652344 13.914062 C 58.007812 13.929688 58.363281 13.941406 58.730469 13.957031 C 58.730469 14.703125 58.730469 15.445312 58.730469 16.214844 C 58.375 16.230469 58.019531 16.242188 57.652344 16.257812 C 57.539062 16.261719 57.429688 16.269531 57.3125 16.273438 C 56.785156 16.285156 56.582031 16.285156 56.175781 15.910156 C 55.921875 15.4375 55.910156 15.152344 55.984375 14.621094 C 56.335938 13.96875 56.628906 13.882812 57.3125 13.894531 Z M 57.292969 14.621094 C 57.160156 14.707031 57.03125 14.796875 56.898438 14.886719 C 56.933594 15.148438 56.933594 15.148438 57.03125 15.417969 C 57.160156 15.460938 57.289062 15.503906 57.421875 15.550781 C 57.550781 15.464844 57.679688 15.375 57.8125 15.285156 C 57.78125 15.019531 57.78125 15.019531 57.683594 14.753906 C 57.554688 14.710938 57.425781 14.664062 57.292969 14.621094 Z M 57.292969 14.621094 "/>
<path style=" stroke:none;fill-rule:nonzero;fill:rgb(100%,100%,100%);fill-opacity:1;" d="M 30.890625 13.894531 C 31.003906 13.902344 31.113281 13.90625 31.230469 13.914062 C 31.585938 13.929688 31.941406 13.941406 32.308594 13.957031 C 32.308594 14.703125 32.308594 15.445312 32.308594 16.214844 C 31.953125 16.230469 31.597656 16.242188 31.230469 16.257812 C 31.117188 16.261719 31.007812 16.269531 30.890625 16.273438 C 30.363281 16.285156 30.160156 16.285156 29.753906 15.910156 C 29.5 15.4375 29.488281 15.152344 29.5625 14.621094 C 29.914062 13.96875 30.207031 13.882812 30.890625 13.894531 Z M 30.871094 14.621094 C 30.738281 14.707031 30.609375 14.796875 30.476562 14.886719 C 30.511719 15.148438 30.511719 15.148438 30.609375 15.417969 C 30.738281 15.460938 30.867188 15.503906 31 15.550781 C 31.128906 15.464844 31.257812 15.375 31.390625 15.285156 C 31.359375 15.019531 31.359375 15.019531 31.261719 14.753906 C 31.132812 14.710938 31.003906 14.664062 30.871094 14.621094 Z M 30.871094 14.621094 "/>
<path style=" stroke:none;fill-rule:nonzero;fill:rgb(100%,100%,100%);fill-opacity:1;" d="M 41.855469 13.957031 C 42.195312 13.945312 42.53125 13.933594 42.878906 13.921875 C 42.984375 13.917969 43.089844 13.914062 43.199219 13.90625 C 43.613281 13.902344 43.878906 13.898438 44.210938 14.167969 C 44.382812 14.589844 44.378906 14.929688 44.367188 15.382812 C 44.363281 15.539062 44.359375 15.695312 44.355469 15.855469 C 44.351562 15.972656 44.347656 16.09375 44.339844 16.214844 C 44.039062 16.214844 43.738281 16.214844 43.425781 16.214844 C 43.382812 15.734375 43.339844 15.25 43.296875 14.753906 C 43.164062 14.753906 43.035156 14.753906 42.902344 14.753906 C 42.859375 15.234375 42.816406 15.71875 42.773438 16.214844 C 42.46875 16.214844 42.167969 16.214844 41.855469 16.214844 C 41.855469 15.46875 41.855469 14.722656 41.855469 13.957031 Z M 41.855469 13.957031 "/>
<path style=" stroke:none;fill-rule:nonzero;fill:rgb(100%,100%,100%);fill-opacity:1;" d="M 41.070312 13.957031 C 41.414062 14.179688 41.414062 14.179688 41.59375 14.488281 C 41.59375 14.707031 41.59375 14.925781 41.59375 15.152344 C 41.078125 15.152344 40.558594 15.152344 40.023438 15.152344 C 40.023438 15.238281 40.023438 15.328125 40.023438 15.417969 C 40.421875 15.429688 40.6875 15.414062 41.070312 15.285156 C 41.359375 15.410156 41.359375 15.410156 41.59375 15.550781 C 41.367188 16.066406 41.367188 16.066406 41.070312 16.214844 C 40.410156 16.296875 39.921875 16.320312 39.355469 15.941406 C 39.042969 15.445312 39.007812 15.199219 39.109375 14.621094 C 39.597656 13.84375 40.234375 13.800781 41.070312 13.957031 Z M 41.070312 13.957031 "/>
<path style=" stroke:none;fill-rule:nonzero;fill:rgb(100%,100%,100%);fill-opacity:1;" d="M 32.570312 13.957031 C 32.90625 13.949219 33.242188 13.9375 33.589844 13.929688 C 33.75 13.925781 33.75 13.925781 33.910156 13.917969 C 34.285156 13.914062 34.589844 13.917969 34.925781 14.097656 C 35.128906 14.5 35.089844 14.859375 35.078125 15.308594 C 35.074219 15.480469 35.074219 15.648438 35.070312 15.820312 C 35.0625 15.953125 35.058594 16.082031 35.054688 16.214844 C 34.796875 16.214844 34.535156 16.214844 34.269531 16.214844 C 34.226562 15.777344 34.183594 15.339844 34.140625 14.886719 C 33.964844 14.886719 33.792969 14.886719 33.617188 14.886719 C 33.574219 15.324219 33.53125 15.761719 33.484375 16.214844 C 33.183594 16.214844 32.882812 16.214844 32.570312 16.214844 C 32.570312 15.46875 32.570312 14.722656 32.570312 13.957031 Z M 32.570312 13.957031 "/>
<path style=" stroke:none;fill-rule:nonzero;fill:rgb(100%,100%,100%);fill-opacity:1;" d="M 26.8125 13.957031 C 27.15625 14.179688 27.15625 14.179688 27.335938 14.488281 C 27.335938 14.707031 27.335938 14.925781 27.335938 15.152344 C 26.625 15.21875 26.625 15.21875 25.898438 15.285156 C 26.378906 15.453125 26.378906 15.453125 26.691406 15.34375 C 26.773438 15.324219 26.859375 15.304688 26.945312 15.285156 C 27.074219 15.371094 27.203125 15.460938 27.335938 15.550781 C 27.109375 16.066406 27.109375 16.066406 26.8125 16.214844 C 26.285156 16.289062 25.742188 16.359375 25.269531 16.070312 C 24.925781 15.699219 24.851562 15.4375 24.84375 14.9375 C 25.171875 13.882812 25.8125 13.789062 26.8125 13.957031 Z M 26.8125 13.957031 "/>
<path style=" stroke:none;fill-rule:nonzero;fill:rgb(100%,100%,100%);fill-opacity:1;" d="M 54.542969 13.160156 C 54.847656 13.160156 55.148438 13.160156 55.460938 13.160156 C 55.460938 13.421875 55.460938 13.683594 55.460938 13.957031 C 55.632812 13.957031 55.804688 13.957031 55.984375 13.957031 C 55.984375 14.175781 55.984375 14.394531 55.984375 14.621094 C 55.808594 14.621094 55.636719 14.621094 55.460938 14.621094 C 55.460938 14.882812 55.460938 15.148438 55.460938 15.417969 C 55.589844 15.417969 55.71875 15.417969 55.851562 15.417969 C 55.894531 15.679688 55.9375 15.945312 55.984375 16.214844 C 55.300781 16.273438 55.300781 16.273438 54.9375 16.214844 C 54.566406 15.824219 54.546875 15.585938 54.519531 15.042969 C 54.527344 14.902344 54.535156 14.765625 54.542969 14.621094 C 54.457031 14.621094 54.371094 14.621094 54.28125 14.621094 C 54.28125 14.402344 54.28125 14.183594 54.28125 13.957031 C 54.367188 13.957031 54.457031 13.957031 54.542969 13.957031 C 54.542969 13.691406 54.542969 13.429688 54.542969 13.160156 Z M 54.542969 13.160156 "/>
<path style=" stroke:none;fill-rule:nonzero;fill:rgb(100%,100%,100%);fill-opacity:1;" d="M 28.660156 13.949219 C 28.78125 13.949219 28.898438 13.949219 29.023438 13.949219 C 29.113281 13.953125 29.207031 13.953125 29.300781 13.957031 C 29.34375 14.085938 29.386719 14.21875 29.429688 14.355469 C 29.300781 14.484375 29.171875 14.617188 29.039062 14.753906 C 29.167969 14.839844 29.296875 14.929688 29.429688 15.019531 C 29.472656 15.484375 29.472656 15.484375 29.429688 15.949219 C 29.167969 16.214844 29.167969 16.214844 28.835938 16.246094 C 28.644531 16.242188 28.644531 16.242188 28.449219 16.238281 C 28.257812 16.238281 28.257812 16.238281 28.0625 16.238281 C 27.730469 16.214844 27.730469 16.214844 27.46875 16.082031 C 27.554688 15.863281 27.640625 15.644531 27.730469 15.417969 C 27.902344 15.417969 28.074219 15.417969 28.253906 15.417969 C 28.039062 15.242188 27.820312 15.066406 27.597656 14.886719 C 27.648438 14.496094 27.648438 14.496094 27.730469 14.089844 C 28.058594 13.921875 28.292969 13.941406 28.660156 13.949219 Z M 28.660156 13.949219 "/>
<path style=" stroke:none;fill-rule:nonzero;fill:rgb(100%,100%,100%);fill-opacity:1;" d="M 35.578125 13.160156 C 35.878906 13.160156 36.183594 13.160156 36.492188 13.160156 C 36.492188 13.421875 36.492188 13.683594 36.492188 13.957031 C 36.625 13.957031 36.753906 13.957031 36.886719 13.957031 C 36.886719 14.175781 36.886719 14.394531 36.886719 14.621094 C 36.757812 14.621094 36.628906 14.621094 36.492188 14.621094 C 36.492188 14.882812 36.492188 15.148438 36.492188 15.417969 C 36.625 15.417969 36.753906 15.417969 36.886719 15.417969 C 36.929688 15.679688 36.972656 15.945312 37.015625 16.214844 C 36.828125 16.226562 36.636719 16.234375 36.445312 16.238281 C 36.339844 16.246094 36.230469 16.25 36.121094 16.253906 C 36.03125 16.242188 35.9375 16.226562 35.839844 16.214844 C 35.558594 15.789062 35.546875 15.679688 35.5625 15.195312 C 35.5625 15.085938 35.566406 14.980469 35.570312 14.867188 C 35.570312 14.785156 35.574219 14.703125 35.578125 14.621094 C 35.492188 14.621094 35.40625 14.621094 35.316406 14.621094 C 35.316406 14.402344 35.316406 14.183594 35.316406 13.957031 C 35.402344 13.957031 35.488281 13.957031 35.578125 13.957031 C 35.578125 13.691406 35.578125 13.429688 35.578125 13.160156 Z M 35.578125 13.160156 "/>
<path style=" stroke:none;fill-rule:nonzero;fill:rgb(100%,100%,100%);fill-opacity:1;" d="M 37.148438 13.957031 C 37.839844 13.957031 38.527344 13.957031 39.242188 13.957031 C 39.152344 14.21875 39.066406 14.480469 38.980469 14.753906 C 38.71875 14.796875 38.460938 14.839844 38.195312 14.886719 C 38.152344 15.324219 38.109375 15.761719 38.0625 16.214844 C 37.761719 16.214844 37.460938 16.214844 37.148438 16.214844 C 37.148438 15.46875 37.148438 14.722656 37.148438 13.957031 Z M 37.148438 13.957031 "/>
<path style=" stroke:none;fill-rule:nonzero;fill:rgb(100%,100%,100%);fill-opacity:1;" d="M 59.121094 12.625 C 59.382812 12.625 59.640625 12.625 59.90625 12.625 C 59.90625 13.8125 59.90625 14.996094 59.90625 16.214844 C 59.648438 16.214844 59.390625 16.214844 59.121094 16.214844 C 59.121094 15.03125 59.121094 13.847656 59.121094 12.625 Z M 59.121094 12.625 "/>
<path style=" stroke:none;fill-rule:nonzero;fill:rgb(100%,100%,100%);fill-opacity:1;" d="M 53.105469 13.957031 C 53.40625 13.957031 53.710938 13.957031 54.019531 13.957031 C 54.019531 14.703125 54.019531 15.445312 54.019531 16.214844 C 53.71875 16.214844 53.417969 16.214844 53.105469 16.214844 C 53.105469 15.46875 53.105469 14.722656 53.105469 13.957031 Z M 53.105469 13.957031 "/>
<path style=" stroke:none;fill-rule:nonzero;fill:rgb(100%,100%,100%);fill-opacity:1;" d="M 48.917969 13.957031 C 49.222656 13.957031 49.523438 13.957031 49.835938 13.957031 C 49.835938 14.703125 49.835938 15.445312 49.835938 16.214844 C 49.535156 16.214844 49.230469 16.214844 48.917969 16.214844 C 48.917969 15.46875 48.917969 14.722656 48.917969 13.957031 Z M 48.917969 13.957031 "/>
<path style=" stroke:none;fill-rule:nonzero;fill:rgb(100%,100%,100%);fill-opacity:1;" d="M 53.367188 12.625 C 53.710938 12.675781 53.710938 12.675781 54.019531 12.757812 C 54.070312 12.980469 54.113281 13.203125 54.152344 13.425781 C 54.019531 13.558594 54.019531 13.558594 53.621094 13.566406 C 53.492188 13.5625 53.367188 13.558594 53.234375 13.558594 C 53.15625 13.242188 53.15625 13.242188 53.105469 12.890625 C 53.191406 12.804688 53.277344 12.71875 53.367188 12.625 Z M 53.367188 12.625 "/>
<path style=" stroke:none;fill-rule:nonzero;fill:rgb(100%,100%,100%);fill-opacity:1;" d="M 49.179688 12.625 C 49.523438 12.675781 49.523438 12.675781 49.835938 12.757812 C 49.886719 12.980469 49.929688 13.203125 49.964844 13.425781 C 49.835938 13.558594 49.835938 13.558594 49.433594 13.566406 C 49.308594 13.5625 49.179688 13.558594 49.050781 13.558594 C 48.96875 13.242188 48.96875 13.242188 48.917969 12.890625 C 49.007812 12.804688 49.09375 12.71875 49.179688 12.625 Z M 49.179688 12.625 "/>
</g>
</svg>
